<svg xmlns="http://www.w3.org/2000/svg" version="1.1" xmlns:xlink="http://www.w3.org/1999/xlink" xmlns:svgjs="http://svgjs.dev/svgjs" width="500" height="500" preserveAspectRatio="none" viewBox="0 0 500 500">
    <g mask="url(&quot;#SvgjsMask1051&quot;)" fill="none">
        <use xlink:href="#SvgjsPath1052" x="30" y="30" stroke="rgba(131, 131, 131, 1)"></use>
        <use xlink:href="#SvgjsPath1052" x="30" y="90" stroke="rgba(202, 163, 218, 1)"></use>
        <use xlink:href="#SvgjsPath1053" x="30" y="150" stroke="rgba(202, 163, 218, 1)"></use>
        <use xlink:href="#SvgjsPath1054" x="30" y="210" stroke="rgba(131, 131, 131, 1)"></use>
        <use xlink:href="#SvgjsPath1052" x="30" y="270" stroke="rgba(131, 131, 131, 1)"></use>
        <use xlink:href="#SvgjsPath1055" x="30" y="330" stroke="rgba(131, 131, 131, 1)"></use>
        <use xlink:href="#SvgjsPath1055" x="30" y="390" stroke="rgba(202, 163, 218, 1)"></use>
        <use xlink:href="#SvgjsPath1055" x="30" y="450" stroke="rgba(202, 163, 218, 1)"></use>
        <use xlink:href="#SvgjsPath1056" x="30" y="510" stroke="rgba(131, 131, 131, 1)"></use>
        <use xlink:href="#SvgjsPath1052" x="90" y="30" stroke="rgba(202, 163, 218, 1)"></use>
        <use xlink:href="#SvgjsPath1054" x="90" y="90" stroke="rgba(202, 163, 218, 1)"></use>
        <use xlink:href="#SvgjsPath1052" x="90" y="150" stroke="rgba(131, 131, 131, 1)"></use>
        <use xlink:href="#SvgjsPath1053" x="90" y="210" stroke="rgba(131, 131, 131, 1)"></use>
        <use xlink:href="#SvgjsPath1052" x="90" y="270" stroke="rgba(131, 131, 131, 1)"></use>
        <use xlink:href="#SvgjsPath1056" x="90" y="330" stroke="rgba(131, 131, 131, 1)"></use>
        <use xlink:href="#SvgjsPath1053" x="90" y="390" stroke="rgba(202, 163, 218, 1)"></use>
        <use xlink:href="#SvgjsPath1055" x="90" y="450" stroke="rgba(202, 163, 218, 1)"></use>
        <use xlink:href="#SvgjsPath1052" x="90" y="510" stroke="rgba(202, 163, 218, 1)"></use>
        <use xlink:href="#SvgjsPath1054" x="150" y="30" stroke="rgba(131, 131, 131, 1)"></use>
        <use xlink:href="#SvgjsPath1055" x="150" y="90" stroke="rgba(202, 163, 218, 1)"></use>
        <use xlink:href="#SvgjsPath1055" x="150" y="150" stroke="rgba(131, 131, 131, 1)"></use>
        <use xlink:href="#SvgjsPath1052" x="150" y="210" stroke="rgba(202, 163, 218, 1)"></use>
        <use xlink:href="#SvgjsPath1054" x="150" y="270" stroke="rgba(202, 163, 218, 1)"></use>
        <use xlink:href="#SvgjsPath1055" x="150" y="330" stroke="rgba(131, 131, 131, 1)"></use>
        <use xlink:href="#SvgjsPath1052" x="150" y="390" stroke="rgba(202, 163, 218, 1)"></use>
        <use xlink:href="#SvgjsPath1055" x="150" y="450" stroke="rgba(131, 131, 131, 1)"></use>
        <use xlink:href="#SvgjsPath1053" x="150" y="510" stroke="rgba(202, 163, 218, 1)"></use>
        <use xlink:href="#SvgjsPath1056" x="210" y="30" stroke="rgba(131, 131, 131, 1)"></use>
        <use xlink:href="#SvgjsPath1054" x="210" y="90" stroke="rgba(202, 163, 218, 1)"></use>
        <use xlink:href="#SvgjsPath1052" x="210" y="150" stroke="rgba(131, 131, 131, 1)"></use>
        <use xlink:href="#SvgjsPath1052" x="210" y="210" stroke="rgba(202, 163, 218, 1)"></use>
        <use xlink:href="#SvgjsPath1055" x="210" y="270" stroke="rgba(131, 131, 131, 1)"></use>
        <use xlink:href="#SvgjsPath1052" x="210" y="330" stroke="rgba(202, 163, 218, 1)"></use>
        <use xlink:href="#SvgjsPath1054" x="210" y="390" stroke="rgba(202, 163, 218, 1)"></use>
        <use xlink:href="#SvgjsPath1056" x="210" y="450" stroke="rgba(131, 131, 131, 1)"></use>
        <use xlink:href="#SvgjsPath1055" x="210" y="510" stroke="rgba(202, 163, 218, 1)"></use>
        <use xlink:href="#SvgjsPath1055" x="270" y="30" stroke="rgba(131, 131, 131, 1)"></use>
        <use xlink:href="#SvgjsPath1053" x="270" y="90" stroke="rgba(202, 163, 218, 1)"></use>
        <use xlink:href="#SvgjsPath1056" x="270" y="150" stroke="rgba(202, 163, 218, 1)"></use>
        <use xlink:href="#SvgjsPath1052" x="270" y="210" stroke="rgba(131, 131, 131, 1)"></use>
        <use xlink:href="#SvgjsPath1055" x="270" y="270" stroke="rgba(202, 163, 218, 1)"></use>
        <use xlink:href="#SvgjsPath1054" x="270" y="330" stroke="rgba(202, 163, 218, 1)"></use>
        <use xlink:href="#SvgjsPath1052" x="270" y="390" stroke="rgba(131, 131, 131, 1)"></use>
        <use xlink:href="#SvgjsPath1054" x="270" y="450" stroke="rgba(131, 131, 131, 1)"></use>
        <use xlink:href="#SvgjsPath1055" x="270" y="510" stroke="rgba(131, 131, 131, 1)"></use>
        <use xlink:href="#SvgjsPath1054" x="330" y="30" stroke="rgba(131, 131, 131, 1)"></use>
        <use xlink:href="#SvgjsPath1054" x="330" y="90" stroke="rgba(131, 131, 131, 1)"></use>
        <use xlink:href="#SvgjsPath1054" x="330" y="150" stroke="rgba(202, 163, 218, 1)"></use>
        <use xlink:href="#SvgjsPath1055" x="330" y="210" stroke="rgba(202, 163, 218, 1)"></use>
        <use xlink:href="#SvgjsPath1054" x="330" y="270" stroke="rgba(131, 131, 131, 1)"></use>
        <use xlink:href="#SvgjsPath1054" x="330" y="330" stroke="rgba(131, 131, 131, 1)"></use>
        <use xlink:href="#SvgjsPath1055" x="330" y="390" stroke="rgba(131, 131, 131, 1)"></use>
        <use xlink:href="#SvgjsPath1054" x="330" y="450" stroke="rgba(131, 131, 131, 1)"></use>
        <use xlink:href="#SvgjsPath1052" x="330" y="510" stroke="rgba(202, 163, 218, 1)"></use>
        <use xlink:href="#SvgjsPath1056" x="390" y="30" stroke="rgba(131, 131, 131, 1)"></use>
        <use xlink:href="#SvgjsPath1056" x="390" y="90" stroke="rgba(131, 131, 131, 1)"></use>
        <use xlink:href="#SvgjsPath1056" x="390" y="150" stroke="rgba(202, 163, 218, 1)"></use>
        <use xlink:href="#SvgjsPath1053" x="390" y="210" stroke="rgba(131, 131, 131, 1)"></use>
        <use xlink:href="#SvgjsPath1054" x="390" y="270" stroke="rgba(202, 163, 218, 1)"></use>
        <use xlink:href="#SvgjsPath1055" x="390" y="330" stroke="rgba(131, 131, 131, 1)"></use>
        <use xlink:href="#SvgjsPath1056" x="390" y="390" stroke="rgba(131, 131, 131, 1)"></use>
        <use xlink:href="#SvgjsPath1055" x="390" y="450" stroke="rgba(131, 131, 131, 1)"></use>
        <use xlink:href="#SvgjsPath1052" x="390" y="510" stroke="rgba(131, 131, 131, 1)"></use>
        <use xlink:href="#SvgjsPath1054" x="450" y="30" stroke="rgba(131, 131, 131, 1)"></use>
        <use xlink:href="#SvgjsPath1055" x="450" y="90" stroke="rgba(131, 131, 131, 1)"></use>
        <use xlink:href="#SvgjsPath1055" x="450" y="150" stroke="rgba(131, 131, 131, 1)"></use>
        <use xlink:href="#SvgjsPath1052" x="450" y="210" stroke="rgba(202, 163, 218, 1)"></use>
        <use xlink:href="#SvgjsPath1057" x="450" y="270" stroke="rgba(131, 131, 131, 1)" stroke-width="3"></use>
        <use xlink:href="#SvgjsPath1055" x="450" y="330" stroke="rgba(202, 163, 218, 1)"></use>
        <use xlink:href="#SvgjsPath1053" x="450" y="390" stroke="rgba(131, 131, 131, 1)"></use>
        <use xlink:href="#SvgjsPath1055" x="450" y="450" stroke="rgba(131, 131, 131, 1)"></use>
        <use xlink:href="#SvgjsPath1052" x="450" y="510" stroke="rgba(202, 163, 218, 1)"></use>
        <use xlink:href="#SvgjsPath1052" x="510" y="30" stroke="rgba(202, 163, 218, 1)"></use>
        <use xlink:href="#SvgjsPath1057" x="510" y="90" stroke="rgba(202, 163, 218, 1)" stroke-width="3"></use>
        <use xlink:href="#SvgjsPath1052" x="510" y="150" stroke="rgba(202, 163, 218, 1)"></use>
        <use xlink:href="#SvgjsPath1055" x="510" y="210" stroke="rgba(131, 131, 131, 1)"></use>
        <use xlink:href="#SvgjsPath1056" x="510" y="270" stroke="rgba(202, 163, 218, 1)"></use>
        <use xlink:href="#SvgjsPath1054" x="510" y="330" stroke="rgba(202, 163, 218, 1)"></use>
        <use xlink:href="#SvgjsPath1053" x="510" y="390" stroke="rgba(202, 163, 218, 1)"></use>
        <use xlink:href="#SvgjsPath1052" x="510" y="450" stroke="rgba(131, 131, 131, 1)"></use>
        <use xlink:href="#SvgjsPath1054" x="510" y="510" stroke="rgba(202, 163, 218, 1)"></use>
    </g>
    <defs>
        <mask id="SvgjsMask1051">
            <rect width="500" height="500" fill="#ffffff"></rect>
        </mask>
        <path d="M-1 0 a1 1 0 1 0 2 0 a1 1 0 1 0 -2 0z" id="SvgjsPath1053"></path>
        <path d="M-3 0 a3 3 0 1 0 6 0 a3 3 0 1 0 -6 0z" id="SvgjsPath1056"></path>
        <path d="M-5 0 a5 5 0 1 0 10 0 a5 5 0 1 0 -10 0z" id="SvgjsPath1054"></path>
        <path d="M2 -2 L-2 2z" id="SvgjsPath1052"></path>
        <path d="M6 -6 L-6 6z" id="SvgjsPath1055"></path>
        <path d="M30 -30 L-30 30z" id="SvgjsPath1057"></path>
    </defs>
</svg>