<svg id="visual" viewBox="0 0 900 300" width="900" height="300" xmlns="http://www.w3.org/2000/svg" xmlns:xlink="http://www.w3.org/1999/xlink" version="1.1"><rect x="0" y="0" width="900" height="300" fill="#09090B"></rect><path d="M0 184L15 176.7C30 169.3 60 154.7 90 155.5C120 156.3 150 172.7 180 174.3C210 176 240 163 270 157.5C300 152 330 154 360 160C390 166 420 176 450 178C480 180 510 174 540 168.7C570 163.3 600 158.7 630 156C660 153.3 690 152.7 720 159.8C750 167 780 182 810 183.2C840 184.3 870 171.7 885 165.3L900 159L900 301L885 301C870 301 840 301 810 301C780 301 750 301 720 301C690 301 660 301 630 301C600 301 570 301 540 301C510 301 480 301 450 301C420 301 390 301 360 301C330 301 300 301 270 301C240 301 210 301 180 301C150 301 120 301 90 301C60 301 30 301 15 301L0 301Z" fill="#a6f2df"></path><path d="M0 212L15 206.2C30 200.3 60 188.7 90 182.3C120 176 150 175 180 181C210 187 240 200 270 205.2C300 210.3 330 207.7 360 205C390 202.3 420 199.7 450 193.8C480 188 510 179 540 178.3C570 177.7 600 185.3 630 190.8C660 196.3 690 199.7 720 201.5C750 203.3 780 203.7 810 200.2C840 196.7 870 189.3 885 185.7L900 182L900 301L885 301C870 301 840 301 810 301C780 301 750 301 720 301C690 301 660 301 630 301C600 301 570 301 540 301C510 301 480 301 450 301C420 301 390 301 360 301C330 301 300 301 270 301C240 301 210 301 180 301C150 301 120 301 90 301C60 301 30 301 15 301L0 301Z" fill="#93ead5"></path><path d="M0 198L15 203.3C30 208.7 60 219.3 90 223C120 226.7 150 223.3 180 219.8C210 216.3 240 212.7 270 209C300 205.3 330 201.7 360 204.2C390 206.7 420 215.3 450 216.3C480 217.3 510 210.7 540 204.5C570 198.3 600 192.7 630 191.8C660 191 690 195 720 200.5C750 206 780 213 810 218.7C840 224.3 870 228.7 885 230.8L900 233L900 301L885 301C870 301 840 301 810 301C780 301 750 301 720 301C690 301 660 301 630 301C600 301 570 301 540 301C510 301 480 301 450 301C420 301 390 301 360 301C330 301 300 301 270 301C240 301 210 301 180 301C150 301 120 301 90 301C60 301 30 301 15 301L0 301Z" fill="#80e3cc"></path><path d="M0 252L15 246.2C30 240.3 60 228.7 90 222.5C120 216.3 150 215.7 180 219.7C210 223.7 240 232.3 270 235.8C300 239.3 330 237.7 360 235.5C390 233.3 420 230.7 450 226.7C480 222.7 510 217.3 540 217C570 216.7 600 221.3 630 225.3C660 229.3 690 232.7 720 235.5C750 238.3 780 240.7 810 237.3C840 234 870 225 885 220.5L900 216L900 301L885 301C870 301 840 301 810 301C780 301 750 301 720 301C690 301 660 301 630 301C600 301 570 301 540 301C510 301 480 301 450 301C420 301 390 301 360 301C330 301 300 301 270 301C240 301 210 301 180 301C150 301 120 301 90 301C60 301 30 301 15 301L0 301Z" fill="#6bdbc2"></path><path d="M0 259L15 257.5C30 256 60 253 90 249.2C120 245.3 150 240.7 180 243.2C210 245.7 240 255.3 270 260.8C300 266.3 330 267.7 360 268C390 268.3 420 267.7 450 264.2C480 260.7 510 254.3 540 250.3C570 246.3 600 244.7 630 243.7C660 242.7 690 242.3 720 242C750 241.7 780 241.3 810 240.2C840 239 870 237 885 236L900 235L900 301L885 301C870 301 840 301 810 301C780 301 750 301 720 301C690 301 660 301 630 301C600 301 570 301 540 301C510 301 480 301 450 301C420 301 390 301 360 301C330 301 300 301 270 301C240 301 210 301 180 301C150 301 120 301 90 301C60 301 30 301 15 301L0 301Z" fill="#54d3b9"></path><path d="M0 274L15 273.5C30 273 60 272 90 269.5C120 267 150 263 180 264C210 265 240 271 270 271.5C300 272 330 267 360 267.5C390 268 420 274 450 276.2C480 278.3 510 276.7 540 275.3C570 274 600 273 630 272.2C660 271.3 690 270.7 720 273.5C750 276.3 780 282.7 810 281C840 279.3 870 269.7 885 264.8L900 260L900 301L885 301C870 301 840 301 810 301C780 301 750 301 720 301C690 301 660 301 630 301C600 301 570 301 540 301C510 301 480 301 450 301C420 301 390 301 360 301C330 301 300 301 270 301C240 301 210 301 180 301C150 301 120 301 90 301C60 301 30 301 15 301L0 301Z" fill="#36cbb0"></path></svg>