<svg id="visual" viewBox="0 0 900 600" width="900" height="600" xmlns="http://www.w3.org/2000/svg" xmlns:xlink="http://www.w3.org/1999/xlink" version="1.1"><rect x="0" y="0" width="900" height="600" fill="#09090B"></rect><path d="M0 59L10 59.2C20 59.3 40 59.7 60 65.7C80 71.7 100 83.3 120 84.2C140 85 160 75 180 71.8C200 68.7 220 72.3 240 75.3C260 78.3 280 80.7 300 81.5C320 82.3 340 81.7 360 83.2C380 84.7 400 88.3 420 85.2C440 82 460 72 480 67.3C500 62.7 520 63.3 540 65.8C560 68.3 580 72.7 600 75C620 77.3 640 77.7 660 78.3C680 79 700 80 720 83.2C740 86.3 760 91.7 780 91.2C800 90.7 820 84.3 840 79C860 73.7 880 69.3 890 67.2L900 65L900 0L890 0C880 0 860 0 840 0C820 0 800 0 780 0C760 0 740 0 720 0C700 0 680 0 660 0C640 0 620 0 600 0C580 0 560 0 540 0C520 0 500 0 480 0C460 0 440 0 420 0C400 0 380 0 360 0C340 0 320 0 300 0C280 0 260 0 240 0C220 0 200 0 180 0C160 0 140 0 120 0C100 0 80 0 60 0C40 0 20 0 10 0L0 0Z" fill="#a6f2df"></path><path d="M0 78L10 74C20 70 40 62 60 62.7C80 63.3 100 72.7 120 76.8C140 81 160 80 180 75.8C200 71.7 220 64.3 240 62.5C260 60.7 280 64.3 300 67.8C320 71.3 340 74.7 360 77.5C380 80.3 400 82.7 420 82.3C440 82 460 79 480 79.2C500 79.3 520 82.7 540 82.3C560 82 580 78 600 78.2C620 78.3 640 82.7 660 78.2C680 73.7 700 60.3 720 53.5C740 46.7 760 46.3 780 52C800 57.7 820 69.3 840 70C860 70.7 880 60.3 890 55.2L900 50L900 0L890 0C880 0 860 0 840 0C820 0 800 0 780 0C760 0 740 0 720 0C700 0 680 0 660 0C640 0 620 0 600 0C580 0 560 0 540 0C520 0 500 0 480 0C460 0 440 0 420 0C400 0 380 0 360 0C340 0 320 0 300 0C280 0 260 0 240 0C220 0 200 0 180 0C160 0 140 0 120 0C100 0 80 0 60 0C40 0 20 0 10 0L0 0Z" fill="#8fe9d3"></path><path d="M0 45L10 48C20 51 40 57 60 59C80 61 100 59 120 60C140 61 160 65 180 63.3C200 61.7 220 54.3 240 51.5C260 48.7 280 50.3 300 48C320 45.7 340 39.3 360 38.5C380 37.7 400 42.3 420 48.3C440 54.3 460 61.7 480 65.2C500 68.7 520 68.3 540 68.5C560 68.7 580 69.3 600 66.8C620 64.3 640 58.7 660 53.3C680 48 700 43 720 45.2C740 47.3 760 56.7 780 58.2C800 59.7 820 53.3 840 53.7C860 54 880 61 890 64.5L900 68L900 0L890 0C880 0 860 0 840 0C820 0 800 0 780 0C760 0 740 0 720 0C700 0 680 0 660 0C640 0 620 0 600 0C580 0 560 0 540 0C520 0 500 0 480 0C460 0 440 0 420 0C400 0 380 0 360 0C340 0 320 0 300 0C280 0 260 0 240 0C220 0 200 0 180 0C160 0 140 0 120 0C100 0 80 0 60 0C40 0 20 0 10 0L0 0Z" fill="#76dfc7"></path><path d="M0 29L10 32C20 35 40 41 60 42.7C80 44.3 100 41.7 120 41.7C140 41.7 160 44.3 180 43.2C200 42 220 37 240 37.7C260 38.3 280 44.7 300 45.2C320 45.7 340 40.3 360 38.3C380 36.3 400 37.7 420 35.7C440 33.7 460 28.3 480 25.2C500 22 520 21 540 23.3C560 25.7 580 31.3 600 31.2C620 31 640 25 660 23.5C680 22 700 25 720 29.5C740 34 760 40 780 39C800 38 820 30 840 26.3C860 22.7 880 23.3 890 23.7L900 24L900 0L890 0C880 0 860 0 840 0C820 0 800 0 780 0C760 0 740 0 720 0C700 0 680 0 660 0C640 0 620 0 600 0C580 0 560 0 540 0C520 0 500 0 480 0C460 0 440 0 420 0C400 0 380 0 360 0C340 0 320 0 300 0C280 0 260 0 240 0C220 0 200 0 180 0C160 0 140 0 120 0C100 0 80 0 60 0C40 0 20 0 10 0L0 0Z" fill="#5ad5bb"></path><path d="M0 11L10 10.7C20 10.3 40 9.7 60 9.5C80 9.3 100 9.7 120 10.7C140 11.7 160 13.3 180 14.8C200 16.3 220 17.7 240 20C260 22.3 280 25.7 300 23.7C320 21.7 340 14.3 360 14.2C380 14 400 21 420 22.2C440 23.3 460 18.7 480 19.5C500 20.3 520 26.7 540 27.3C560 28 580 23 600 20.8C620 18.7 640 19.3 660 17.5C680 15.7 700 11.3 720 12.5C740 13.7 760 20.3 780 24.5C800 28.7 820 30.3 840 27.3C860 24.3 880 16.7 890 12.8L900 9L900 0L890 0C880 0 860 0 840 0C820 0 800 0 780 0C760 0 740 0 720 0C700 0 680 0 660 0C640 0 620 0 600 0C580 0 560 0 540 0C520 0 500 0 480 0C460 0 440 0 420 0C400 0 380 0 360 0C340 0 320 0 300 0C280 0 260 0 240 0C220 0 200 0 180 0C160 0 140 0 120 0C100 0 80 0 60 0C40 0 20 0 10 0L0 0Z" fill="#36cbb0"></path></svg>